<?xml version="1.0" encoding="utf-8"?>
<!-- Generator: Adobe Illustrator 24.1.0, SVG Export Plug-In . SVG Version: 6.00 Build 0)  -->
<svg version="1.1" id="Layer_1" xmlns="http://www.w3.org/2000/svg" xmlns:xlink="http://www.w3.org/1999/xlink" x="0px" y="0px"
	 viewBox="0 0 850.39 850.39" style="enable-background:new 0 0 850.39 850.39;" xml:space="preserve">
<style type="text/css">
	.st0{fill:#231F20;}
</style>
<g>
	<path class="st0" d="M634.96,522.58h49.27l5.34-16.11h-1.19l-8.31,13.06c-0.68,1.02-0.93,1.19-2.2,1.19h-30.19v-30.78h15.77
		c1.87,0,1.95,0.17,2.21,1.27l1.87,9.07h1.19v-22.73h-1.19l-1.87,9.16c-0.17,1.02-0.34,1.19-2.21,1.19h-15.77v-27.73h25.86
		c1.19,0,1.53,0.17,1.95,1.19l5.68,12.72h1.27l-2.63-15.77h-44.86v1.27l4.41,0.26c2.12,0.09,3.31,0.59,3.31,2.2v56.82
		c0,1.61-1.19,2.12-3.31,2.21l-4.41,0.26V522.58z M658.62,451.68h1.28l16.87-11.36v-0.17h-6.27L658.62,451.68z M586.79,522.58h21.79
		v-1.36l-5.08-0.17c-2.12-0.09-3.23-0.6-3.23-2.21v-58.85h18.83c1.1,0,1.53,0.26,1.87,1.28l5.17,14.58h1.27l-2.29-17.55h-54.87
		l-2.2,17.55h1.27l5.09-14.58c0.34-1.02,0.76-1.28,1.87-1.28h18.91v58.85c0,1.61-1.19,2.12-3.31,2.21l-5.09,0.17V522.58z
		 M540.15,522.58h20.44v-1.27l-4.41-0.26c-2.21-0.09-3.31-0.6-3.31-2.21v-56.82c0-1.61,1.1-2.12,3.31-2.2l4.41-0.26v-1.27h-20.44
		v1.27l4.41,0.26c2.12,0.09,3.31,0.59,3.31,2.2v56.82c0,1.61-1.19,2.12-3.31,2.21l-4.41,0.26V522.58z M506.91,523.51
		c13.23,0,22.13-7.46,22.13-17.55c0-11.11-8.48-15.69-20.01-19.42l-4.41-1.45c-8.48-2.8-12.64-6.78-12.64-13.9
		c0-8.14,8.14-12.21,16.62-12.21c2.29,0,4.33,0.17,6.19,0.6c1.95,0.42,3.14,1.19,4.24,3.39l6.53,12.63h1.27l-3.31-16.11
		c-4.24-1.61-8.99-2.38-13.9-2.38c-11.28,0-22.05,5.26-22.05,15.69c0,9.07,5.77,14.33,15.52,17.47l4.49,1.44
		c9.92,3.23,16.96,7.04,16.96,16.29c0,8.14-7.12,13.74-17.56,13.74c-3.56,0-7.29-0.51-10.18-1.78c-1.27-0.6-1.95-1.53-2.71-3.22
		l-6.78-14.16h-1.19l3.56,17.55C494.53,522.58,500.38,523.51,506.91,523.51 M452.89,523.51c13.23,0,22.13-7.46,22.13-17.55
		c0-11.11-8.48-15.69-20.02-19.42l-4.41-1.45c-8.48-2.8-12.63-6.78-12.63-13.9c0-8.14,8.14-12.21,16.62-12.21
		c2.29,0,4.32,0.17,6.19,0.6c1.95,0.42,3.14,1.19,4.24,3.39l6.53,12.63h1.27l-3.31-16.11c-4.24-1.61-8.99-2.38-13.91-2.38
		c-11.28,0-22.05,5.26-22.05,15.69c0,9.07,5.77,14.33,15.52,17.47l4.49,1.44c9.92,3.23,16.96,7.04,16.96,16.29
		c0,8.14-7.12,13.74-17.55,13.74c-3.56,0-7.29-0.51-10.18-1.78c-1.27-0.6-1.95-1.53-2.72-3.22l-6.78-14.16h-1.19l3.56,17.55
		C440.51,522.58,446.36,523.51,452.89,523.51 M369.61,522.58h49.27l5.34-16.11h-1.19l-8.31,13.06c-0.68,1.02-0.94,1.19-2.21,1.19
		h-30.19v-30.78h15.78c1.87,0,1.95,0.17,2.2,1.27l1.87,9.07h1.19v-22.73h-1.19l-1.87,9.16c-0.17,1.02-0.34,1.19-2.2,1.19h-15.78
		v-27.73h25.87c1.19,0,1.53,0.17,1.95,1.19l5.68,12.72h1.27l-2.63-15.77h-44.86v1.27l4.41,0.26c2.12,0.09,3.31,0.59,3.31,2.2v56.82
		c0,1.61-1.19,2.12-3.31,2.21l-4.41,0.26V522.58z M334.34,523.51c8.06,0,16.37-1.53,21.45-4.58l3.65-16.28h-1.19l-7.12,13.91
		c-1.36,2.63-3.48,3.31-6.19,3.98c-2.46,0.6-5.51,1.11-9.75,1.11c-18.57,0-31.04-12.3-31.04-32.14c0-21.12,14.58-30.53,30.53-30.53
		c4.24,0,7.29,0.51,9.75,1.1c2.71,0.68,4.83,1.36,6.19,3.99l7.12,13.91h1.19l-3.64-16.29c-5.09-3.14-13.06-4.58-20.52-4.58
		c-20.86,0-36.29,12.47-36.29,33.24C298.47,511.22,313.9,523.51,334.34,523.51 M236.56,522.58h49.27l5.34-16.11h-1.19l-8.31,13.06
		c-0.68,1.02-0.94,1.19-2.21,1.19h-30.19v-30.78h15.78c1.87,0,1.95,0.17,2.21,1.27l1.86,9.07h1.19v-22.73h-1.19l-1.86,9.16
		c-0.17,1.02-0.34,1.19-2.21,1.19h-15.78v-27.73h25.87c1.19,0,1.53,0.17,1.95,1.19l5.68,12.72h1.27l-2.63-15.77h-44.86v1.27
		l4.41,0.26c2.12,0.09,3.31,0.59,3.31,2.2v56.82c0,1.61-1.19,2.12-3.31,2.21l-4.41,0.26V522.58z M260.22,451.68h1.27l16.88-11.36
		v-0.17h-6.27L260.22,451.68z M161.51,522.58h17.72v-1.27l-4.41-0.26c-2.21-0.09-3.31-0.6-3.31-2.21v-49.35l46.98,54.78h0.26v-62.25
		c0-1.61,1.1-2.12,3.31-2.2l4.41-0.26v-1.27h-17.72v1.27l4.41,0.26c2.21,0.09,3.31,0.59,3.31,2.2v52.24l-47.91-55.97h-6.44v0.17
		l7.12,8.31v52.07c0,1.61-1.1,2.12-3.31,2.21l-4.41,0.26V522.58z"/>
	<path class="st0" d="M693.38,406.94h49.27l5.34-16.11h-1.19l-8.31,13.06c-0.68,1.02-0.93,1.19-2.2,1.19h-30.19v-30.78h15.77
		c1.87,0,1.95,0.17,2.21,1.27l1.87,9.07h1.19v-22.73h-1.19l-1.87,9.16c-0.17,1.02-0.34,1.19-2.21,1.19h-15.77v-27.73h25.86
		c1.19,0,1.53,0.17,1.95,1.19l5.68,12.72h1.27l-2.63-15.77h-44.86v1.27l4.41,0.26c2.12,0.09,3.31,0.59,3.31,2.2v56.82
		c0,1.61-1.19,2.12-3.31,2.21l-4.41,0.26V406.94z M642.51,373.27v-28.83h9.07c11.96,0,20.95,2.8,20.95,14.42
		c0,11.7-8.99,14.41-20.95,14.41H642.51z M629.79,406.94h20.43v-1.27l-4.41-0.26c-2.21-0.09-3.31-0.6-3.31-2.21v-28.07h8.14
		l31.12,31.8h6.95l-31.89-32.4c11.87-0.59,21.29-4.32,21.29-16.03c0-13.23-11.62-15.86-25.87-15.86h-22.47v1.27l4.41,0.26
		c2.12,0.09,3.31,0.59,3.31,2.2v56.82c0,1.61-1.19,2.12-3.31,2.21l-4.41,0.26V406.94z M567.29,406.94h49.27l5.34-16.11h-1.19
		l-8.31,13.06c-0.68,1.02-0.93,1.19-2.21,1.19h-30.19v-30.78h15.77c1.87,0,1.95,0.17,2.21,1.27l1.87,9.07h1.19v-22.73h-1.19
		l-1.87,9.16c-0.17,1.02-0.34,1.19-2.21,1.19h-15.77v-27.73h25.86c1.19,0,1.53,0.17,1.95,1.19l5.68,12.72h1.28l-2.63-15.77h-44.86
		v1.27l4.41,0.26c2.12,0.09,3.31,0.59,3.31,2.2v56.82c0,1.61-1.19,2.12-3.31,2.21l-4.41,0.26V406.94z M598.66,336.04l-11.87-11.53
		h-6.27v0.17l16.88,11.36H598.66z M535.74,406.94h20.44v-1.27l-4.41-0.26c-2.2-0.09-3.31-0.6-3.31-2.21v-56.82
		c0-1.61,1.11-2.12,3.31-2.2l4.41-0.26v-1.27h-20.44v1.27l4.41,0.26c2.12,0.09,3.31,0.59,3.31,2.2v56.82c0,1.61-1.19,2.12-3.31,2.21
		l-4.41,0.26V406.94z M446.28,406.94h17.64v-1.27l-4.41-0.26c-2.12-0.09-3.39-0.6-3.31-2.21l3.39-58.09l25.02,49.78h0.51l25.1-49.78
		l3.39,58.09c0.09,1.61-1.19,2.04-3.39,2.21l-4.32,0.26v1.27h20.44v-1.27l-4.41-0.26c-2.2-0.09-3.22-0.6-3.31-2.21l-3.39-56.82
		c-0.09-1.61,1.11-2.12,3.31-2.2l4.41-0.26v-1.27h-13.99l-22.47,44.43l-22.39-44.43h-14.41v1.27l4.41,0.26
		c2.12,0.09,3.39,0.59,3.31,2.2l-3.39,56.82c-0.09,1.61-1.19,2.12-3.31,2.21l-4.41,0.26V406.94z M385.47,406.94h49.27l5.34-16.11
		h-1.19l-8.31,13.06c-0.68,1.02-0.93,1.19-2.2,1.19h-30.19v-30.78h15.77c1.87,0,1.95,0.17,2.21,1.27l1.87,9.07h1.19v-22.73h-1.19
		l-1.87,9.16c-0.17,1.02-0.34,1.19-2.21,1.19h-15.77v-27.73h25.86c1.19,0,1.53,0.17,1.95,1.19l5.68,12.72h1.27l-2.63-15.77h-44.86
		v1.27l4.41,0.26c2.12,0.09,3.31,0.59,3.31,2.2v56.82c0,1.61-1.19,2.12-3.31,2.21l-4.41,0.26V406.94z M334.59,373.27v-28.83h9.08
		c11.95,0,20.94,2.8,20.94,14.42c0,11.7-8.99,14.41-20.94,14.41H334.59z M321.87,406.94h20.43v-1.27l-4.41-0.26
		c-2.21-0.09-3.31-0.6-3.31-2.21v-28.07h8.14l31.12,31.8h6.95l-31.89-32.4c11.87-0.59,21.29-4.32,21.29-16.03
		c0-13.23-11.62-15.86-25.87-15.86h-22.47v1.27l4.41,0.26c2.12,0.09,3.31,0.59,3.31,2.2v56.82c0,1.61-1.19,2.12-3.31,2.21
		l-4.41,0.26V406.94z M261.66,406.94H286v-1.36l-8.31-0.17c-2.21-0.09-3.31-0.6-3.31-2.21v-58.77h12.38
		c12.38,0,21.2,3.06,21.2,15.18c0,12.21-8.82,15.09-21.2,15.09H276.5v1.87h11.11c13.91,0,26.04-3.05,26.04-17.05
		c0-14.07-12.13-16.87-26.04-16.87h-25.95v1.27l4.41,0.26c2.12,0.09,3.31,0.59,3.31,2.2v56.82c0,1.61-1.19,2.12-3.31,2.21
		l-4.41,0.26V406.94z M174.49,406.94h49.27l5.34-16.11h-1.19l-8.31,13.06c-0.68,1.02-0.93,1.19-2.2,1.19h-30.19v-30.78h15.77
		c1.87,0,1.95,0.17,2.21,1.27l1.87,9.07h1.19v-22.73h-1.19l-1.87,9.16c-0.17,1.02-0.34,1.19-2.21,1.19h-15.77v-27.73h25.86
		c1.19,0,1.53,0.17,1.95,1.19l5.68,12.72h1.27l-2.63-15.77h-44.86v1.27l4.41,0.26c2.12,0.09,3.31,0.59,3.31,2.2v56.82
		c0,1.61-1.19,2.12-3.31,2.21l-4.41,0.26V406.94z M115.72,405.16v-60.72h9.25c20.18,0,34,8.65,34,30.96
		c0,21.54-14.41,29.76-33.75,29.76H115.72z M103,406.94h22.39c20.86,0,39.35-8.91,39.35-32.48c0-23.57-18.49-31.8-39.52-31.8H103
		v1.27l4.41,0.26c2.12,0.09,3.31,0.59,3.31,2.2v56.82c0,1.61-1.19,2.12-3.31,2.21l-4.41,0.26V406.94z"/>
</g>
</svg>
