<?xml version="1.0" encoding="utf-8"?>
<!-- Generator: Adobe Illustrator 24.1.0, SVG Export Plug-In . SVG Version: 6.00 Build 0)  -->
<svg version="1.1" id="Layer_1" xmlns="http://www.w3.org/2000/svg" xmlns:xlink="http://www.w3.org/1999/xlink" x="0px" y="0px"
	 viewBox="0 0 850.39 850.39" style="enable-background:new 0 0 850.39 850.39;" xml:space="preserve">
<style type="text/css">
	.st0{fill:#231F20;}
</style>
<path class="st0" d="M292.84,507.67l-15.76-39.28l-14.56,0.9l0.38,0.94l13.07,2.45c1.03,0.22,1.24,0.37,1.65,1.38l9.66,24.07
	l-24.54,9.85l-5.05-12.58c-0.6-1.48-0.49-1.61,0.31-2.16l6.64-4.39l-0.38-0.94l-18.11,7.27l0.38,0.94l7.9-1.44
	c0.87-0.19,1.06-0.11,1.65,1.38l5.05,12.58l-22.11,8.87l-8.28-20.62c-0.38-0.95-0.35-1.27,0.32-1.93l8.32-8.6l-0.4-1.01l-11.73,7.14
	l14.35,35.76l1.02-0.41l-1.21-3.59c-0.61-1.72-0.58-2.83,0.7-3.35l45.29-18.18c1.29-0.51,2.07,0.27,2.82,1.93l1.61,3.44
	L292.84,507.67z M228.76,511.5l-0.41-1.02l-14.45-9.82l-0.13,0.06l2.01,5L228.76,511.5z M318.19,540.64l-12-14.37l-0.89,0.75
	l2.69,3.45c1.11,1.44,1.38,2.45,0.32,3.33l-38.8,32.41l-10.37-12.41c-0.61-0.73-0.67-1.15-0.19-1.93l6.77-11.44l-0.7-0.84
	l-10.31,11.18l30.22,36.17l12.78-8.21l-0.7-0.84l-12.41,4.68c-0.86,0.34-1.26,0.2-1.87-0.53l-10.42-12.46l38.8-32.41
	c1.06-0.89,2.05-0.38,3.28,0.97l2.91,3.26L318.19,540.64z M348.79,566.45l-14.12-10.43l-0.65,0.88l2.92,2.43
	c1.48,1.18,1.98,2.1,1.16,3.21l-29,39.26c-0.82,1.11-1.84,0.9-3.41-0.17l-3.18-2.07l-0.65,0.88l14.12,10.43l0.65-0.88l-2.92-2.43
	c-1.42-1.14-1.98-2.1-1.16-3.21l29-39.26c0.82-1.11,1.9-0.86,3.41,0.16l3.18,2.07L348.79,566.45z M374.28,579.2
	c-10.38-4.62-19.97-1.87-23.5,6.05c-3.88,8.72,1.18,15.27,8.93,22.22l2.96,2.67c5.68,5.16,7.55,9.74,5.06,15.33
	c-2.84,6.39-10.65,6.75-17.3,3.78c-1.8-0.8-3.33-1.64-4.65-2.63c-1.38-1.01-2.05-2.03-2.15-4.14l-0.71-12.19l-1-0.44l-3.03,13.8
	c2.77,2.75,6.22,5,10.09,6.72c8.85,3.94,19.14,3.57,22.78-4.62c3.17-7.12,0.48-13.26-6.08-19.13l-3.02-2.7
	c-6.66-5.99-10.85-11.45-7.62-18.7c2.84-6.39,10.38-8.3,18.57-4.65c2.8,1.24,5.55,2.95,7.36,4.95c0.79,0.91,1,1.88,1.01,3.48
	l0.38,13.48l0.93,0.42l3.33-15.02C383.67,584.25,379.4,581.48,374.28,579.2 M418.55,591.81c-11.24-1.65-19.74,3.59-21,12.17
	c-1.38,9.44,5.26,14.39,14.59,18.99l3.57,1.78c6.86,3.44,9.89,7.34,9.01,13.39c-1.01,6.92-8.44,9.37-15.65,8.31
	c-1.95-0.28-3.65-0.68-5.18-1.27c-1.61-0.61-2.52-1.4-3.18-3.41l-3.98-11.55l-1.08-0.16l0.8,14.11c3.41,1.9,7.35,3.14,11.53,3.75
	c9.59,1.4,19.4-1.73,20.69-10.59c1.12-7.71-3.12-12.9-11.02-16.78l-3.64-1.79c-8.03-3.97-13.54-8.09-12.39-15.94
	c1.01-6.92,7.76-10.79,16.62-9.5c3.03,0.44,6.14,1.34,8.43,2.78c1.01,0.66,1.47,1.54,1.91,3.08l4.01,12.88l1.01,0.15l-0.84-15.36
	C428.96,594.15,424.1,592.62,418.55,591.81 M489.56,589.18l-41.87,6.13l-2.54,14.36l1.01-0.15l5.44-12.13
	c0.45-0.95,0.64-1.13,1.73-1.29l25.66-3.76l3.83,26.16l-13.41,1.96c-1.59,0.23-1.68,0.1-2.03-0.81l-2.72-7.48l-1.01,0.15l2.83,19.32
	l1.01-0.15l0.44-8.02c0.02-0.89,0.14-1.05,1.73-1.28l13.41-1.96l3.45,23.57l-21.98,3.22c-1.01,0.15-1.32,0.04-1.8-0.76l-6.41-10.11
	l-1.09,0.16l4.2,13.08l38.12-5.58l-0.16-1.08l-3.78,0.33c-1.81,0.19-2.88-0.09-3.09-1.46l-7.07-48.29c-0.2-1.37,0.75-1.95,2.54-2.29
	l3.72-0.76L489.56,589.18z M517.14,576.1c-6.1,3.27-11.77,7.79-14.39,12.17l3.84,13.81l0.9-0.48l-0.25-13.42
	c-0.04-2.54,1.29-3.91,3.08-5.53c1.62-1.45,3.73-3.07,6.94-4.79c14.06-7.53,28.49-3.27,36.53,11.76
	c8.56,15.99,1.33,29.03-10.74,35.49c-3.22,1.72-5.73,2.57-7.83,3.12c-2.33,0.58-4.21,0.93-6.31-0.51l-11.03-7.65l-0.9,0.48
	l9.36,10.85c5.13,0.31,11.75-1.83,17.4-4.85c15.8-8.46,22.43-24.16,14-39.89C549.29,570.87,532.62,567.82,517.14,576.1
	 M581.72,523.6l-28.65,31.15l7.08,12.75l0.69-0.75l-3.42-12.85c-0.25-1.02-0.21-1.28,0.53-2.09l17.56-19.09l19.46,17.9l-9.17,9.97
	c-1.09,1.18-1.24,1.14-2.09,0.65l-6.82-4.09l-0.69,0.75l14.37,13.22l0.69-0.75l-4.71-6.5c-0.55-0.7-0.56-0.91,0.53-2.08l9.18-9.97
	l17.53,16.12l-15.04,16.35c-0.69,0.75-1,0.87-1.88,0.54l-11.35-3.81l-0.74,0.8l11.5,7.51l26.09-28.36l-0.8-0.74l-2.73,2.64
	c-1.29,1.29-2.3,1.74-3.32,0.81l-35.92-33.04c-1.02-0.94-0.65-1.98,0.53-3.37l2.4-2.93L581.72,523.6z M612.78,579.78l-0.74,0.8
	l-2.63,17.28l0.11,0.1l3.65-3.97L612.78,579.78z M609.5,465.23l-6.02,13.98l1,0.43l1.7-3.39c0.82-1.71,1.59-2.41,2.86-1.86
	l38.94,16.75l-59.17,18.47l-0.08,0.2l49.11,21.13c1.28,0.55,1.3,1.59,0.62,3.36l-1.29,3.56l1,0.43l6.02-13.99l-1-0.43l-1.7,3.39
	c-0.82,1.71-1.59,2.41-2.86,1.86l-41.22-17.73l60.43-18.81l2.19-5.09l-0.13-0.06l-8.98,2.8l-41.09-17.68
	c-1.27-0.55-1.3-1.59-0.61-3.36l1.29-3.56L609.5,465.23z M609.89,390.38l2.94,42.22l14.13,3.61l-0.07-1.02l-11.68-6.34
	c-0.92-0.52-1.07-0.73-1.15-1.82l-1.8-25.87l26.38-1.84l0.94,13.52c0.11,1.6-0.03,1.68-0.96,1.96l-7.66,2.14l0.07,1.02l19.47-1.36
	l-0.07-1.02l-7.96-1.05c-0.88-0.08-1.03-0.22-1.15-1.82l-0.94-13.52l23.76-1.66l1.55,22.16c0.07,1.02-0.06,1.32-0.91,1.74
	l-10.56,5.63l0.08,1.09l13.36-3.19l-2.68-38.44l-1.09,0.07l0.05,3.79c0.06,1.82-0.31,2.87-1.69,2.96l-48.69,3.4
	c-1.38,0.1-1.88-0.89-2.09-2.7l-0.48-3.77L609.89,390.38z M621.29,338.09l22.87-9.51l2.99,7.2c3.95,9.48,4.69,17.53-4.53,21.36
	c-9.28,3.86-14.4-2.37-18.34-11.86L621.29,338.09z M590.39,339.1l6.74,16.21l1.01-0.42l-1.25-3.58c-0.66-1.78-0.62-2.82,0.66-3.35
	l22.26-9.26l2.69,6.46l-14.96,35.17l2.29,5.52L625,349.87c4.39,9.22,10.45,15.45,19.73,11.6c10.49-4.36,8.75-14.44,4.05-25.74
	l-7.41-17.82l-1.01,0.42l1.25,3.58c0.64,1.71,0.62,2.82-0.66,3.35l-45.06,18.74c-1.28,0.53-2.07-0.24-2.84-1.9l-1.66-3.41
	L590.39,339.1z M556.4,297.24l27.51,32.16l13.5-5.52l-0.66-0.78l-13.16,1.87c-1.05,0.12-1.3,0.06-2.01-0.78l-16.86-19.7l20.09-17.2
	l8.81,10.29c1.04,1.22,0.98,1.37,0.4,2.15l-4.88,6.29l0.66,0.77l14.83-12.69l-0.66-0.78l-7.02,3.9c-0.76,0.46-0.96,0.44-2.01-0.78
	l-8.81-10.29l18.1-15.49l14.45,16.88c0.66,0.78,0.74,1.09,0.31,1.93l-5.13,10.81l0.71,0.83l8.83-10.52l-25.06-29.27l-0.83,0.71
	l2.3,3.02c1.13,1.43,1.46,2.49,0.41,3.39l-37.08,31.73c-1.05,0.91-2.05,0.41-3.28-0.92l-2.63-2.74L556.4,297.24z M620.19,278.12
	l0.89-14.19l-3.5-4.1l-0.11,0.1l2.01,17.36L620.19,278.12z M533.89,281.69l14.25,10.26l0.64-0.89l-2.95-2.39
	c-1.5-1.16-2.01-2.07-1.2-3.2l28.52-39.6c0.81-1.12,1.83-0.92,3.41,0.12l3.2,2.04l0.64-0.88l-14.25-10.26l-0.64,0.89l2.95,2.39
	c1.44,1.12,2.01,2.07,1.2,3.2l-28.52,39.6c-0.81,1.12-1.89,0.88-3.41-0.12l-3.2-2.04L533.89,281.69z M462.89,252.84l14.38,4.77
	l0.34-1.03l-3.52-1.4c-1.71-0.65-2.61-1.4-2.1-2.69l18.47-46.44l6.94,47.35l0.41,0.13l33.92-33.8L518.79,268
	c-0.37,1.34-1.52,1.34-3.36,0.88l-3.59-0.96l-0.35,1.03l16.66,5.53l0.35-1.04l-3.53-1.4c-1.77-0.66-2.47-1.35-2.1-2.69l12.59-47.24
	c0.37-1.34,1.47-1.43,3.29-0.91l3.67,0.98l0.34-1.03l-11.41-3.78l-30.34,30.16l-6.24-42.28l-11.76-3.9l-0.34,1.03l3.52,1.4
	c1.71,0.65,2.61,1.41,2.1,2.69l-18.13,45.41c-0.5,1.29-1.54,1.41-3.29,0.91l-3.67-0.98L462.89,252.84z M409.87,256.71l42.25-2.41
	l3.79-14.08l-1.02,0.06l-6.49,11.6c-0.53,0.91-0.74,1.06-1.83,1.12l-25.89,1.48l-1.51-26.4l13.53-0.77c1.6-0.09,1.68,0.05,1.95,0.98
	l2.05,7.69l1.02-0.06l-1.11-19.49l-1.02,0.06l-1.15,7.94c-0.1,0.88-0.23,1.03-1.83,1.13l-13.53,0.77l-1.35-23.78l22.18-1.26
	c1.02-0.06,1.32,0.07,1.73,0.92l5.49,10.63l1.09-0.06l-3.02-13.4l-38.47,2.19l0.06,1.09l3.79,0.01c1.82-0.03,2.87,0.34,2.95,1.73
	l2.78,48.73c0.08,1.38-0.91,1.88-2.73,2.05l-3.77,0.43L409.87,256.71z M357.72,244.73l-9.23-22.98l7.24-2.9
	c9.53-3.83,17.59-4.48,21.31,4.78c3.74,9.33-2.55,14.37-12.08,18.2L357.72,244.73z M358.36,275.64l16.29-6.54l-0.41-1.01l-3.6,1.21
	c-1.78,0.64-2.82,0.58-3.34-0.7l-8.98-22.38l6.49-2.61L399.79,259l5.54-2.23l-35.78-15.62c9.27-4.27,15.58-10.26,11.83-19.59
	c-4.23-10.55-14.34-8.92-25.69-4.36l-17.91,7.19l0.41,1.01l3.59-1.21c1.72-0.61,2.83-0.58,3.35,0.7l18.18,45.29
	c0.51,1.29-0.27,2.07-1.93,2.82l-3.44,1.61L358.36,275.64z M317.63,307.9l16.05-13.4l-0.75-0.89l-5.57,4.46
	c-1.5,1.16-2.51,1.43-3.4,0.37L291.6,259.7l8.16-6.82c8.16-6.82,15.66-9.66,22.34-1.67c6.72,8.05,2.5,14.81-5.66,21.63l-6.76,5.65
	l1.02,1.23l7.33-6.12c9.17-7.66,15.48-16.35,7.78-25.57c-7.75-9.28-17.29-4.45-26.46,3.21l-17.1,14.29l0.7,0.84l3.05-2.26
	c1.44-1.11,2.51-1.43,3.4-0.37l31.29,37.46c0.89,1.06,0.39,2.05-0.97,3.27l-2.77,2.6L317.63,307.9z M279.67,371.82l18.14-38.24
	l-10.54-10.07l-0.44,0.92l7.08,11.26c0.54,0.9,0.57,1.16,0.11,2.15l-11.11,23.43l-23.89-11.33l5.81-12.24
	c0.69-1.44,0.85-1.45,1.8-1.24l7.73,1.89l0.43-0.92l-17.64-8.37l-0.44,0.92l6.42,4.82c0.73,0.51,0.8,0.7,0.11,2.15l-5.81,12.24
	l-21.52-10.21l9.52-20.07c0.44-0.92,0.69-1.12,1.64-1.07l11.96,0.27l0.47-0.98l-13.21-3.77l-16.51,34.81l0.98,0.47l1.82-3.33
	c0.85-1.61,1.68-2.34,2.93-1.75l44.09,20.92c1.25,0.59,1.21,1.7,0.49,3.38l-1.43,3.51L279.67,371.82z M270.51,421.77l-51.85-5.6
	l0.85-7.89c1.86-17.24,10.52-28.24,29.57-26.19c18.4,1.98,24.09,15.06,22.31,31.57L270.51,421.77z M270.86,432.8l2.06-19.12
	c1.92-17.82-3.97-34.42-24.11-36.59c-20.14-2.18-28.86,12.85-30.8,30.81l-2.05,18.97l1.09,0.12l0.62-3.74
	c0.27-1.8,0.81-2.77,2.19-2.62l48.52,5.24c1.37,0.15,1.7,1.21,1.57,3.02l-0.19,3.79L270.86,432.8z"/>
</svg>
