<svg xmlns="http://www.w3.org/2000/svg" viewBox="0 0 30 23.72"><defs><style>.cls-1{fill:#231f20;}</style></defs><g id="Layer_2" data-name="Layer 2"><g id="Home_FBT" data-name="Home FBT"><path class="cls-1" d="M15,1.4,28.64,23H1.36ZM15,0,0,23.72H30Z"/><path class="cls-1" d="M8.64,15.51v5.22h2.08a3.67,3.67,0,0,0,.75-.08,2,2,0,0,0,.63-.27,1.36,1.36,0,0,0,.42-.47,1.47,1.47,0,0,0,.16-.72,1.56,1.56,0,0,0-.06-.46,1.14,1.14,0,0,0-.17-.35,1.36,1.36,0,0,0-.24-.24L11.92,18a1.4,1.4,0,0,0,.2-.17,1.74,1.74,0,0,0,.19-.26,2.22,2.22,0,0,0,.14-.31,1.36,1.36,0,0,0,.05-.36,1.2,1.2,0,0,0-.17-.66,1.15,1.15,0,0,0-.43-.42,1.85,1.85,0,0,0-.6-.21,3,3,0,0,0-.67-.07Zm1,4.41V18.44h1.07a1.1,1.1,0,0,1,.7.19.71.71,0,0,1,.23.56.68.68,0,0,1-.22.55,1,1,0,0,1-.66.18Zm0-2.25V16.32h1a.85.85,0,0,1,.56.17.6.6,0,0,1,.21.48.66.66,0,0,1-.2.52.83.83,0,0,1-.57.18Z"/><polygon class="cls-1" points="13.24 8.12 13.24 13.33 14.25 13.33 14.25 11.08 16.83 11.08 16.83 10.25 14.25 10.25 14.25 8.95 16.98 8.95 16.98 8.12 13.24 8.12"/><polygon class="cls-1" points="18.42 16.55 18.42 20.55 19.34 20.55 19.34 16.55 20.79 16.55 20.79 15.79 16.98 15.79 16.98 16.55 18.42 16.55"/></g></g></svg>