<svg xmlns="http://www.w3.org/2000/svg" width="168.711" height="9.984" viewBox="0 0 168.711 9.984">
  <g id="Layer_2" data-name="Layer 2" transform="translate(0 0.003)">
    <g id="Home_FBT" data-name="Home FBT">
      <path id="Path_2336" data-name="Path 2336" d="M163.79,5.59l1.22.23a4.35,4.35,0,0,1,.71.17,2.13,2.13,0,0,1,.57.25,1.09,1.09,0,0,1,.37.37,1,1,0,0,1,.13.53,1.09,1.09,0,0,1-.17.64,1.36,1.36,0,0,1-.47.42,2.47,2.47,0,0,1-.63.22,3.68,3.68,0,0,1-.66.06,4.28,4.28,0,0,1-.81-.08,2.06,2.06,0,0,1-.71-.3,1.94,1.94,0,0,1-.53-.57,2.39,2.39,0,0,1-.29-.89h-1.84a3.86,3.86,0,0,0,.39,1.41,3.33,3.33,0,0,0,.85,1,4,4,0,0,0,1.26.67,5.42,5.42,0,0,0,1.62.23,5.72,5.72,0,0,0,1.43-.18,3.93,3.93,0,0,0,1.25-.55,2.92,2.92,0,0,0,.89-.93,2.4,2.4,0,0,0,.34-1.3,2.54,2.54,0,0,0-.29-1.25,2.4,2.4,0,0,0-.77-.84,4,4,0,0,0-1.06-.52,10.669,10.669,0,0,0-1.18-.29l-1.26-.22a2.39,2.39,0,0,1-1-.4,1.022,1.022,0,0,1-.21-1.36,1.19,1.19,0,0,1,.43-.37,2.23,2.23,0,0,1,.6-.2,3,3,0,0,1,.66-.07,3.14,3.14,0,0,1,.68.07,2,2,0,0,1,.63.26,1.5,1.5,0,0,1,.48.46,1.54,1.54,0,0,1,.25.71h1.84a3,3,0,0,0-.35-1.25,3.15,3.15,0,0,0-.83-.95,4.24,4.24,0,0,0-1.2-.61A4.74,4.74,0,0,0,164.74,0a5.81,5.81,0,0,0-1.35.17,4.35,4.35,0,0,0-1.23.5,3,3,0,0,0-.91.87,2.17,2.17,0,0,0-.35,1.26,2.43,2.43,0,0,0,.23,1.1,2.47,2.47,0,0,0,.63.81,3.21,3.21,0,0,0,.92.55,6.24,6.24,0,0,0,1.11.33M157,7.24,155.5.17h-2.22l-1.35,7-1.44-7h-2l2.14,9.66h2.25l1.46-7.19,1.47,7.19h2.25L160.24.17H158.3ZM148,5a6.061,6.061,0,0,0-.33-2,4.48,4.48,0,0,0-.95-1.58,4.36,4.36,0,0,0-1.5-1A5,5,0,0,0,143.3,0a5.14,5.14,0,0,0-2,.36,4.42,4.42,0,0,0-1.49,1A4.48,4.48,0,0,0,138.9,3a6.06,6.06,0,0,0-.33,2,6.08,6.08,0,0,0,.33,2,4.57,4.57,0,0,0,.95,1.58,4.3,4.3,0,0,0,1.49,1,5.14,5.14,0,0,0,2,.36,5,5,0,0,0,1.94-.36,4.25,4.25,0,0,0,1.5-1A4.57,4.57,0,0,0,147.69,7,6.08,6.08,0,0,0,148,5m-7.48,0a4.54,4.54,0,0,1,.22-1.49,3.16,3.16,0,0,1,.59-1.09,2.57,2.57,0,0,1,3.89,0,3.16,3.16,0,0,1,.59,1.09A4.54,4.54,0,0,1,146.05,5a4.66,4.66,0,0,1-.22,1.51,3.16,3.16,0,0,1-.59,1.09,2.61,2.61,0,0,1-.88.67,2.69,2.69,0,0,1-2.13,0,2.61,2.61,0,0,1-.88-.67,3.16,3.16,0,0,1-.59-1.09A4.66,4.66,0,0,1,140.54,5m-8.68-3.33h1.48a6.18,6.18,0,0,1,.89.07,2.37,2.37,0,0,1,.71.24,1.52,1.52,0,0,1,.46.45,1.37,1.37,0,0,1,.16.7,1.25,1.25,0,0,1-.5,1.08,2.78,2.78,0,0,1-1.63.37h-1.57Zm2,4.39,1.92,3.78h2.12l-2.15-4.18A2.82,2.82,0,0,0,137.1,4.6a2.73,2.73,0,0,0,.42-1.5,3.29,3.29,0,0,0-.24-1.31,2.11,2.11,0,0,0-.77-.91,3.61,3.61,0,0,0-1.36-.53,9.73,9.73,0,0,0-2-.18H130V9.83h1.9V6.05h2ZM122.7,1.66h1.48a6.06,6.06,0,0,1,.89.07,2.28,2.28,0,0,1,.71.24,1.41,1.41,0,0,1,.46.45,1.37,1.37,0,0,1,.16.7,1.23,1.23,0,0,1-.5,1.08,2.78,2.78,0,0,1-1.63.37H122.7Zm2,4.39,1.91,3.78h2.12l-2.14-4.18a2.84,2.84,0,0,0,1.32-1.05,2.73,2.73,0,0,0,.42-1.5,3.29,3.29,0,0,0-.24-1.31,2.09,2.09,0,0,0-.76-.91A3.68,3.68,0,0,0,126,.35a9.79,9.79,0,0,0-2-.18h-3.2V9.83h1.9V6.05h2ZM119.31,5A5.82,5.82,0,0,0,119,3a4.48,4.48,0,0,0-1-1.58,4.32,4.32,0,0,0-1.49-1,5.46,5.46,0,0,0-3.9,0,4.32,4.32,0,0,0-1.49,1,4.5,4.5,0,0,0-1,1.58,6.06,6.06,0,0,0-.33,2,6.08,6.08,0,0,0,.39,2,4.59,4.59,0,0,0,1,1.58,4.21,4.21,0,0,0,1.49,1,5.46,5.46,0,0,0,3.9,0,4.21,4.21,0,0,0,1.49-1A4.57,4.57,0,0,0,119,7a5.84,5.84,0,0,0,.34-2m-7.49,0A4.82,4.82,0,0,1,112,3.5a3.35,3.35,0,0,1,.6-1.09,2.43,2.43,0,0,1,.87-.66,2.48,2.48,0,0,1,1.07-.23,2.41,2.41,0,0,1,1.06.23,2.46,2.46,0,0,1,.88.66,3.35,3.35,0,0,1,.6,1.09,4.82,4.82,0,0,1,.26,1.5,5,5,0,0,1-.22,1.51,3.35,3.35,0,0,1-.6,1.09,2.61,2.61,0,0,1-.88.67,2.55,2.55,0,0,1-1.06.22,2.63,2.63,0,0,1-1.07-.22,2.57,2.57,0,0,1-.87-.67A3.35,3.35,0,0,1,112,6.5a5,5,0,0,1-.18-1.5m-9.49,4.84h1.89l2.37-7.26V9.83h1.77V.17h-2.8L103.29,7.7,100.94.17H98.17V9.83h1.77V2.57ZM96.68,5a6.06,6.06,0,0,0-.33-2,4.48,4.48,0,0,0-.95-1.58,4.42,4.42,0,0,0-1.49-1A5.49,5.49,0,0,0,90,.36a4.32,4.32,0,0,0-1.49,1,4.48,4.48,0,0,0-1,1.58A5.987,5.987,0,0,0,87.56,7a4.57,4.57,0,0,0,1,1.58,4.21,4.21,0,0,0,1.49,1,5.49,5.49,0,0,0,3.91,0,4.3,4.3,0,0,0,1.49-1A4.57,4.57,0,0,0,96.35,7a6.08,6.08,0,0,0,.33-2M89.2,5a4.54,4.54,0,0,1,.22-1.49A3.16,3.16,0,0,1,90,2.41a2.57,2.57,0,0,1,3.89,0,3.16,3.16,0,0,1,.59,1.09A4.54,4.54,0,0,1,94.71,5a4.66,4.66,0,0,1-.22,1.51A3.16,3.16,0,0,1,93.9,7.6a2.47,2.47,0,0,1-2,.89,2.58,2.58,0,0,1-1.06-.22A2.61,2.61,0,0,1,90,7.59a3.16,3.16,0,0,1-.59-1.09A4.66,4.66,0,0,1,89.2,5M82,1.72V9.83h1.91V1.72h3V.17H79V1.72Zm-9.42-.06H74a6.06,6.06,0,0,1,.89.07,2.28,2.28,0,0,1,.71.24,1.41,1.41,0,0,1,.46.45,1.37,1.37,0,0,1,.16.7,1.23,1.23,0,0,1-.5,1.08,2.78,2.78,0,0,1-1.63.37H72.53Zm2,4.39,1.91,3.78h2.12L76.45,5.65A2.84,2.84,0,0,0,77.77,4.6a2.73,2.73,0,0,0,.42-1.5A3.29,3.29,0,0,0,78,1.79a2.09,2.09,0,0,0-.76-.91A3.68,3.68,0,0,0,75.83.35a9.79,9.79,0,0,0-2-.18h-3.2V9.83h1.9V6.05h2ZM62.09.17V9.83h7V8.28H64V5.66h4.85V4.12H64V1.72h5.13V.17ZM56.17,1.72V9.83h1.91V1.72h3V.17H53.2V1.72Zm-8.51,0V9.83h1.9V1.72h3V.17H44.69V1.72ZM36.88.17V9.83h7V8.28h-5.1V5.66h4.85V4.12H38.78V1.72h5.13V.17Zm-7.17,4V1.66h2a1.57,1.57,0,0,1,1,.33,1.08,1.08,0,0,1,.39.89,1.21,1.21,0,0,1-.38,1,1.62,1.62,0,0,1-1.06.32Zm0,4.18V5.59h2A2,2,0,0,1,33.05,6a1.27,1.27,0,0,1,.43,1,1.24,1.24,0,0,1-.42,1,1.9,1.9,0,0,1-1.25.35ZM27.81.17V9.83h3.91a5.94,5.94,0,0,0,1.42-.16,3.38,3.38,0,0,0,1.18-.49,2.51,2.51,0,0,0,.8-.88,2.68,2.68,0,0,0,.3-1.3,2.75,2.75,0,0,0-.12-.86A2.08,2.08,0,0,0,34.52,5,3.6,3.6,0,0,0,34,4.73a1.87,1.87,0,0,0,.38-.33,2.91,2.91,0,0,0,.36-.47A3.4,3.4,0,0,0,35,3.35a2.39,2.39,0,0,0,.09-.66,2.2,2.2,0,0,0-.31-1.23A2.3,2.3,0,0,0,34,.69a3.37,3.37,0,0,0-1.13-.4A6.56,6.56,0,0,0,31.56.17ZM20.55,1.66H22a6.06,6.06,0,0,1,.89.07,2.28,2.28,0,0,1,.71.24,1.41,1.41,0,0,1,.46.45,1.37,1.37,0,0,1,.16.7,1.25,1.25,0,0,1-.5,1.08,2.78,2.78,0,0,1-1.63.37H20.55Zm2,4.39,1.92,3.78h2.12L24.47,5.65A2.84,2.84,0,0,0,25.79,4.6a2.73,2.73,0,0,0,.42-1.5A3.29,3.29,0,0,0,26,1.79a2.16,2.16,0,0,0-.76-.91A3.75,3.75,0,0,0,23.85.35a9.86,9.86,0,0,0-2-.18h-3.2V9.83h1.9V6.05h2ZM17.15,5a6.06,6.06,0,0,0-.33-2,4.48,4.48,0,0,0-1-1.58,4.32,4.32,0,0,0-1.49-1,5.06,5.06,0,0,0-2-.36,5.06,5.06,0,0,0-1.95.36A4.32,4.32,0,0,0,9,1.37,4.5,4.5,0,0,0,8,3a6.06,6.06,0,0,0-.3,2A6.08,6.08,0,0,0,8,7,4.59,4.59,0,0,0,9,8.62a4.21,4.21,0,0,0,1.49,1,5.06,5.06,0,0,0,1.95.36,5.06,5.06,0,0,0,2-.36,4.21,4.21,0,0,0,1.49-1,4.57,4.57,0,0,0,1-1.58,6.08,6.08,0,0,0,.33-2M9.67,5a4.82,4.82,0,0,1,.22-1.5,3.33,3.33,0,0,1,.59-1.09,2.56,2.56,0,0,1,1.95-.89,2.41,2.41,0,0,1,1.06.23,2.46,2.46,0,0,1,.88.66A3.35,3.35,0,0,1,15,3.5,4.83,4.83,0,0,1,15.18,5,5,5,0,0,1,15,6.5a3.35,3.35,0,0,1-.6,1.09,2.61,2.61,0,0,1-.88.67,2.55,2.55,0,0,1-1.06.22,2.47,2.47,0,0,1-1.95-.89A3.33,3.33,0,0,1,9.89,6.5,5,5,0,0,1,9.67,5M0,.17V9.83H1.9V5.66H6.75V4.12H1.9V1.72H7V.17Z"/>
    </g>
  </g>
</svg>
