<?xml version="1.0" standalone="no"?>
<!DOCTYPE svg PUBLIC "-//W3C//DTD SVG 20010904//EN"
 "http://www.w3.org/TR/2001/REC-SVG-20010904/DTD/svg10.dtd">
<svg version="1.0" xmlns="http://www.w3.org/2000/svg"
 width="69.000000pt" height="97.000000pt" viewBox="0 0 69.000000 97.000000"
 preserveAspectRatio="xMidYMid meet">

<g transform="translate(0.000000,97.000000) scale(0.100000,-0.100000)"
fill="#000000" stroke="none">
<path d="M345 810 c-8 -13 -35 -103 -34 -115 0 -5 9 14 20 43 11 28 24 52 29
52 16 0 22 -66 16 -157 -6 -96 -14 -133 -27 -133 -9 0 -39 53 -39 68 0 6 -19
41 -42 78 -78 130 -115 167 -143 144 -12 -10 -12 -18 2 -53 18 -46 43 -87 43
-71 0 5 -4 14 -9 20 -13 15 -31 73 -23 78 13 8 49 -27 73 -69 38 -65 88 -169
84 -173 -2 -2 -14 2 -27 9 -25 14 -41 17 -110 20 -51 2 -122 -31 -98 -46 6 -4
20 2 32 15 17 19 27 21 62 16 63 -10 110 -24 130 -39 15 -11 5 -13 -71 -9 -77
4 -95 1 -132 -18 -53 -27 -49 -34 8 -14 27 9 74 14 122 13 91 -2 110 -10 80
-31 -11 -8 -18 -17 -15 -20 2 -3 -16 -18 -42 -33 -37 -22 -54 -26 -88 -22
l-41 6 33 -12 c31 -12 32 -13 12 -27 -11 -8 -25 -30 -31 -50 -6 -19 -16 -40
-21 -47 -15 -18 14 -22 47 -5 46 23 124 85 125 100 0 19 38 52 60 52 16 0 20
-7 20 -33 0 -18 -5 -38 -12 -45 -7 -7 -9 -12 -5 -12 11 0 -11 -38 -46 -82 -16
-21 -33 -35 -37 -33 -4 3 -13 -2 -20 -10 -10 -12 -9 -15 8 -15 29 0 77 62 110
141 16 40 32 64 40 61 6 -2 12 -9 12 -15 0 -6 9 -20 20 -32 12 -12 24 -39 27
-60 5 -34 3 -41 -23 -62 l-29 -23 25 0 c49 0 78 43 61 92 -14 40 -15 38 14 38
51 0 92 26 100 61 7 30 4 37 -28 64 l-35 30 38 19 c68 33 111 75 108 105 -3
23 -8 26 -45 29 -22 2 -57 -4 -77 -12 -20 -8 -36 -14 -36 -13 0 1 9 26 20 55
27 69 26 82 -6 82 -26 0 -57 -26 -106 -90 l-27 -35 1 105 c1 58 -2 111 -6 118
-9 14 -42 16 -51 2z m151 -194 c-9 -19 -16 -41 -16 -50 0 -9 -4 -16 -9 -16 -4
0 -21 -18 -36 -40 -31 -44 -45 -51 -45 -20 0 29 32 88 76 139 41 47 56 41 30
-13z m144 -47 c0 -40 -100 -113 -167 -121 l-41 -6 20 34 c21 36 68 69 127 90
45 16 61 17 61 3z m-120 -159 c48 -26 45 -81 -4 -94 -13 -3 -31 -8 -38 -11 -9
-4 -29 11 -52 40 l-38 45 34 15 c39 17 72 19 98 5z m-282 -85 c-10 -23 -90
-85 -110 -85 -19 0 -5 32 30 70 26 27 47 40 65 40 25 0 26 -2 15 -25z"/>
</g>
</svg>
